<svg width="500" height="500" version="1.1" viewBox="0 0 7.299 7.299" xmlns="http://www.w3.org/2000/svg" xmlns:xlink="http://www.w3.org/1999/xlink">
	<defs>
		<linearGradient id="j" x1="16.75" x2="19.84" y1="12.1" y2="96.22" gradientTransform="matrix(.07293 0 0 .07293 .256 .2624)" gradientUnits="userSpaceOnUse">
			<stop stop-color="#29dcf5" offset="0"/>
			<stop stop-color="#38a8b4" offset="1"/>
		</linearGradient>
		<linearGradient id="i" x1="17.02" x2="91.32" y1=".6517" y2="22.53" gradientTransform="matrix(.07293 0 0 .07293 .256 .2624)" gradientUnits="userSpaceOnUse">
			<stop stop-color="#66e9ef" offset=".192"/>
			<stop stop-color="#dd9e3f" offset="1"/>
		</linearGradient>
		<linearGradient id="h" x1="77.06" x2="62.65" y1="67.07" y2="94.69" gradientTransform="matrix(.07293 0 0 .07293 .256 .2624)" gradientUnits="userSpaceOnUse">
			<stop stop-color="#2f9dab" offset="0"/>
			<stop stop-color="#dba041" offset="1"/>
		</linearGradient>
		<linearGradient id="g" x1="1.321" x2="1.235" y1=".5133" y2="6.713" gradientUnits="userSpaceOnUse">
			<stop stop-color="#f6b055" offset=".05829"/>
			<stop stop-color="#ffd87b" offset=".3074"/>
			<stop stop-color="#c5ab61" offset=".6453"/>
			<stop stop-color="#708a69" offset=".7629"/>
			<stop stop-color="#1e5870" offset=".9811"/>
			<stop stop-color="#1a3b60" offset="1"/>
		</linearGradient>
		<linearGradient id="f" x1="1.193" x2="1.222" y1="5.481" y2="6.933" gradientTransform="translate(.09772 -.03596)" gradientUnits="userSpaceOnUse">
			<stop stop-color="#ffd56f" offset="0"/>
			<stop stop-color="#f7b155" offset=".4823"/>
			<stop stop-color="#a87531" offset="1"/>
		</linearGradient>
		<linearGradient id="e" x1="-1.474" x2="-1.608" y1=".4695" y2="2.33" gradientUnits="userSpaceOnUse">
			<stop stop-color="#c0ba58" offset=".3482"/>
			<stop stop-color="#225668" offset=".7829"/>
		</linearGradient>
		<linearGradient id="d" x1="1.174" x2="1.198" y1=".8166" y2="2.294" gradientUnits="userSpaceOnUse">
			<stop stop-color="#1b4264" offset="0"/>
			<stop stop-color="#54796b" offset="1"/>
		</linearGradient>
		<linearGradient id="c" x1="-.9061" x2="-1.02" y1="6.35" y2="5.487" gradientUnits="userSpaceOnUse">
			<stop stop-color="#61734b" offset="0"/>
			<stop stop-color="#1a3b60" offset="1"/>
		</linearGradient>
		<linearGradient id="b" x1="4.126" x2="3.303" y1="1.621" y2="7.875" gradientTransform="matrix(.9307 0 0 .9411 .3408 .07706)" gradientUnits="userSpaceOnUse">
			<stop stop-color="#8affee" offset="0"/>
			<stop stop-color="#ffc83d" offset="1"/>
		</linearGradient>
		<linearGradient id="a" x1="3.563" x2="4.627" y1="1.329" y2="4.786" gradientUnits="userSpaceOnUse">
			<stop stop-color="#00c4f2" stop-opacity=".6183" offset="0"/>
			<stop stop-opacity="0" offset="1"/>
		</linearGradient>
	</defs>
	<g transform="translate(3.073 .1701)">
		<path transform="translate(-3.305 -.4897)" d="m0.4982 1.519 0.1197-0.759 0.7807-0.2862 0.7378 0.5876-0.8849 1.277-0.5421-0.0483z" fill="url(#d)"/>
		<path d="m-2.319 1.937c1.108-0.1074 1.994-0.07489 1.994-0.07489l0.7651-0.9736s-1.453-0.0369-2.62-0.2625c0 0 0.2181 0.2016 0.3192 0.3541 0.1011 0.1525-0.03549 0.4048-0.08619 0.5001-0.0507 0.09525-0.2635 0.2622-0.2635 0.2622 0 0 0.1113 0.08628-0.1087 0.1947z" fill="url(#e)"/>
		<path d="m-1.289 5.362c0.8281 0.04239 1.487 0.06707 2.093 0.06698 0.6054-8.75e-5 1.276-0.03508 1.636-0.09464 0.3596-0.05957 0.7864-0.1032 0.9439-0.1751 0.1574-0.07191 0.5073 0.2885 0.5723 0.6155s-0.05037 0.6822-0.2178 0.9372c-0.1674 0.255-0.6962 0.1224-1.464 0.1008-0.5569-0.01562-1.095-0.09153-1.739-0.05225-0.3574 0.02182-1.896 0.1522-1.896 0.1522m0.2397-1.101c0.1528 0.3713-0.1505 0.5691-0.3883 0.4684-0.2378-0.1007-0.3033-0.4212-0.1713-0.6961 0.132-0.2749 0.5571-0.2868 0.7995-0.08914 0.2424 0.1977 0.2535 0.7167 0.1226 1.029-0.1309 0.3122-0.411 0.4531-0.7859 0.3467-0.3749-0.1064-0.6618-0.5434-0.7687-1.015-0.107-0.472-0.1828-1.225 0.05715-2.142 0.24-0.9175 0.7922-1.633 0.9372-2.228 0.1451-0.595-0.01216-1.462-0.7576-1.45 0.6687 0.02218 1.403 0.1212 1.889 0.1912 0.486 0.07002 1.179 0.06866 1.605 0.03797 0.426-0.03069 0.9943-0.1703 1.38-0.1146 0.3861 0.05573 0.7189 0.5652 0.6316 1.228-0.08723 0.6625-0.7204 1.572-0.7284 2.494-0.00798 0.9221 0.1281 1.287 0.1944 1.427" fill="url(#g)"/>
		<path d="m0.5933 6.311s-1.622 0.05592-2.039 0.1378l-0.304-0.6164 0.2126-0.4543 0.4888-0.07441 1.811 0.5004z" fill="url(#c)"/>
		<path d="m-0.6616 6.488c-0.1309 0.3122-0.3611 0.5224-0.6692 0.4023-0.5643-0.1883 1.606-0.144 1.963-0.1658 0.6434-0.03928 1.182 0.03663 1.739 0.05225 0.7682 0.02154 1.297 0.1542 1.464-0.1008 0.1674-0.255 0.2828-0.6102 0.2178-0.9372s-0.4149-0.6874-0.5723-0.6155c-0.1574 0.07191-0.5842 0.1156-0.9439 0.1751-0.3596 0.05956-1.03 0.09456-1.636 0.09464-0.6054 8.7e-5 -1.265-0.0246-2.093-0.06698 0.4187 0.3266 0.6605 0.8497 0.5297 1.162z" fill="url(#f)"/>
	</g>
	<g transform="translate(-.2317 -.3196)">
		<g transform="translate(-.1502 -.1046)" display="none">
			<path d="m3.542 1.373c-0.05688 0.1433-0.1215 0.2873-0.209 0.454-0.1212 0.2309-0.2687 0.4314-0.4581 0.5955 0.3808 0.01686 0.7776 0.04769 1.072 0.05698-0.03146-0.2431-0.1046-0.4706-0.1509-0.6121-0.04318-0.1319-0.1576-0.3494-0.2545-0.4944zm1.458 0.3272c-0.2396 0.00426-0.4313 0.2417-0.429 0.5312 0.0016 0.1798 0.07906 0.3462 0.2054 0.4411l-0.1109 0.4816c-0.2299 0.01283-0.5028 0.02849-0.5472 0.02573-0.04619-0.002873-0.1303-0.0134-0.18-0.01654l0.01091-0.1103c0.009963-0.1018-0.063-0.1928-0.1636-0.204-0.1014-0.01116-0.1925 0.0629-0.2036 0.1654l-0.01272 0.1158c-0.3583-0.02577-0.6981-0.04464-1.147-0.1066-0.1008-0.0135-0.1935 0.058-0.2072 0.1599-0.01444 0.1026 0.05655 0.1975 0.1581 0.2114 0.1666 0.02299 0.2653 0.02171 0.4217 0.0386l-0.1145 0.2886c-0.2309 0.04414-0.3169 0.2179-0.3347 0.418-0.01775 0.2001 0.1908 0.4232 0.395 0.4172 0.2042-0.00601 0.3933-0.131 0.4271-0.302 0.03378-0.171-0.01357-0.3864-0.1257-0.4395l0.1345-0.3474c0.315 0.02729 0.6859 0.07012 0.918 0.08455 0.1612 0.01002 0.5028-0.01469 0.8544-0.0386 0.1758-0.01196 0.3477-0.02556 0.4817-0.03492 0.134-0.00935 0.2482-0.0147 0.2454-0.0147 0.1019-6.074e-4 0.184-0.08449 0.1836-0.1875-5.957e-4 -0.1023-0.08245-0.185-0.1836-0.1856-0.05591 0-0.1361 0.00713-0.2709 0.01654-0.09963 0.00695-0.23 0.0151-0.3563 0.0239l0.09271-0.4062c0.1789-0.07078 0.2999-0.2725 0.2999-0.4999v-0.01103c-0.005206-0.2891-0.2025-0.5189-0.4417-0.5147zm0.4254 2.263s-0.4201 0.04979-0.7017 0.05698c-0.2887 0.00736-0.6448 0.01443-0.8998-0.00368-0.102-0.0078-0.1908 0.06966-0.1981 0.1728-0.00771 0.1031 0.06889 0.1929 0.1709 0.2003 0.2849 0.02021 0.6464 0.01108 0.9362 0.00368 0.314-0.00802 0.7362-0.05882 0.7362-0.05882 0.1015-0.01208 0.1739-0.1051 0.1618-0.2077-0.01194-0.1026-0.104-0.1759-0.2054-0.1636zm-0.884 0.9261c-0.272 0.01529-0.7361 0.01928-0.9125 0.00368-0.102-0.00889-0.1917 0.06777-0.2 0.1709-0.00879 0.1031 0.06703 0.1938 0.1691 0.2022 0.2307 0.02041 0.6761 0.01259 0.9652-0.00368 0.1012-0.0065 0.1783-0.09429 0.1727-0.1967-0.00547-0.1031-0.09259-0.1821-0.1945-0.1765z" display="inline" fill="url(#b)" stroke="#fcf9bd" stroke-linecap="round" stroke-linejoin="round" stroke-opacity=".2339" stroke-width=".3242" style="paint-order:stroke fill markers"/>
		</g>
		<g transform="translate(-.106 .03711)">
			<path d="m1.988 4.628c0.8431 0.2079 2.014 0.2191 3.171 0.1577m-2.969-0.9169c0.3609 0.07954 0.822 0.1386 1.209 0.1466m-0.9158-0.9082c0.6583 0.1597 1.346 0.1522 1.861 0.1507m-1.724-0.9166c0.9741 0.1684 2.107 0.1962 3.034 0.03317m-2.888-0.8179c1.101 0.2186 2.232 0.1517 3.345 0.00335" fill="none" stroke="url(#a)" stroke-linecap="round" stroke-width=".4498"/>
		</g>
		<g fill="none" stroke-linecap="round" stroke-width=".3969">
			<path d="m1.399 0.5191c0.4783-0.0144 1.258 0.1222 1.744 0.1922 0.486 0.07002 1.179 0.06866 1.605 0.03797 0.426-0.03069 0.9943-0.1703 1.38-0.1146 0.3861 0.05573 0.833 0.4564 0.7458 1.119-0.08723 0.6625-0.7416 1.746-0.8387 2.663-0.07643 0.7221 0.02171 1.218 0.08803 1.358" stroke="url(#i)"/>
			<path d="m2.118 5.85c0.8281 0.04239 1.412 0.06486 2.017 0.06477 0.6054-8.75e-5 1.276-0.03508 1.636-0.09464 0.3596-0.05957 0.7864-0.1032 0.9439-0.1751 0.1574-0.07191 0.5073 0.2885 0.5723 0.6155s-0.05037 0.6822-0.2178 0.9372c-0.1674 0.255-0.6962 0.1224-1.464 0.1008-0.5569-0.01562-1.095-0.09153-1.739-0.05225-0.3574 0.02182-1.752 0.1643-1.752 0.1643" stroke="url(#h)"/>
			<path d="m1.163 1.297c0.4444 0.1912 0.2326 0.9031-0.1527 0.9407-0.3094 0.0302-0.5454-0.2973-0.5505-0.7855-0.006483-0.6169 0.3482-0.92 0.7952-0.9323 0.7454-0.01196 0.9026 0.8553 0.7576 1.45-0.1451 0.595-0.6973 1.311-0.9372 2.228-0.24 0.9175-0.2684 1.697-0.1614 2.169 0.107 0.472 0.4221 0.912 0.797 1.018 0.3749 0.1064 0.731-0.06432 0.8619-0.3766 0.1309-0.3122 0.1197-0.8312-0.1226-1.029-0.2424-0.1977-0.6675-0.1858-0.7995 0.08914-0.132 0.2749-0.026 0.591 0.2118 0.6918" stroke="url(#j)"/>
		</g>
	</g>
</svg>
