<svg xmlns="http://www.w3.org/2000/svg" width="16" height="16" viewBox="0 0 16 16"><path fill="currentColor" d="m14.43 15.85c-0.3163-0.08831-0.4329-0.1916-2.702-2.394-1.236-1.2-2.291-2.221-2.343-2.269-0.09597-0.08848-0.09597-0.08848-0.4297 0.06884-3.31 1.56-7.388-0.06008-8.536-3.392-1.535-4.454 2.629-8.708 7.388-7.546 4.061 0.9916 5.908 5.617 3.565 8.927-0.1132 0.1599-0.2045 0.3007-0.203 0.313 0.0015 0.01225 0.8586 0.8503 1.905 1.862 2.556 2.473 2.672 2.592 2.764 2.832 0.3474 0.9046-0.4888 1.855-1.407 1.599zm-7.473-5.499c4.889-1.044 4.273-8.787-0.6998-8.787-5.2 0-5.545 8.206-0.3722 8.844 0.2058 0.0254 0.8454-0.0086 1.072-0.05701zm1.596-4.079c-0.2244-0.1049-0.2996-0.2396-0.3542-0.6342-0.1553-1.122-1.007-1.941-2.098-2.015-0.977-0.06653-0.9889-1.195-0.01264-1.195 1.685 0 3.317 1.61 3.317 3.274 0 0.461-0.4465 0.76-0.8517 0.5705z" stroke-width=".032"/></svg>
