<svg version="1.1" viewBox="0 0 261.8 272.2" xmlns="http://www.w3.org/2000/svg">
	<path fill="currentColor" d="m20.04 0a20 20 0 0 0-20 20 20 20 0 0 0 20 20h220a20 20 0 0 0 20-20 20 20 0 0 0-20-20z"/>
	<path fill="currentColor" d="m170.6 92.02-150.7 0.4727a20 20 0 0 0-19.94 20.06 20 20 0 0 0 20.06 19.94l150.6-0.4727h6e-3c24.37 1e-3 36.19 6.387 42.64 12.74 6.449 6.352 8.539 14.26 8.539 20.57 0 4.368-2.41 12.4-7.342 18.02-4.93 5.613-11.39 9.733-23.45 9.736l-35.2-0.2617a20 20 0 0 0-20.15 19.85 20 20 0 0 0 19.85 20.15l35.41 0.2637h0.0742c22.83 0 41.76-9.969 53.51-23.34 11.75-13.37 17.29-29.21 17.29-44.42 0-15.46-5.385-34.21-20.47-49.06-15.09-14.86-38.86-24.24-70.71-24.24z"/>
	<path fill="currentColor" d="m35.23 191.9a19.5 19.5 0 0 0-19.5 19.5 19.5 19.5 0 0 0 19.5 19.5h53.17a19.5 19.5 0 0 0 19.5-19.5 19.5 19.5 0 0 0-19.5-19.5z"/>
	<path fill="currentColor" d="m190.5 154.2a15 15 0 0 0-6.9 3.559l-46.88 42.62a15 15 0 0 0-0.1582 22.05l48.82 45.68a15 15 0 0 0 21.2-0.7051 15 15 0 0 0-0.7051-21.2l-36.94-34.57 34.84-31.68a15 15 0 0 0 1.01-21.19 15 15 0 0 0-14.29-4.566z"/>
</svg>
